<!-- Generated by IcoMoon.io -->
<svg version="1.1" xmlns="http://www.w3.org/2000/svg" width="62" height="62" viewBox="0 0 62 62">
<title>facebook</title>
<rect fill="#fff" x="0" y="0" width="62" height="62"></rect>
<path d="M52.7 3.1h-43.4c-3.41 0-6.2 2.79-6.2 6.2v43.4c0 3.413 2.79 6.2 6.2 6.2h21.7v-21.7h-6.2v-7.672h6.2v-6.355c0-6.708 3.757-11.42 11.675-11.42l5.589 0.006v8.076h-3.711c-3.081 0-4.253 2.313-4.253 4.458v5.239h7.961l-1.761 7.669h-6.2v21.7h12.4c3.41 0 6.2-2.787 6.2-6.2v-43.4c0-3.41-2.79-6.2-6.2-6.2z"></path>
</svg>
