<!-- Generated by IcoMoon.io -->
<svg version="1.1" xmlns="http://www.w3.org/2000/svg" width="62" height="62" viewBox="0 0 62 62">
<title>instagram</title>
<rect fill="#fff" x="0" y="0" width="62" height="62"></rect>
<path d="M52.7 3.1h-43.4c-3.41 0-6.2 2.79-6.2 6.2v43.4c0 3.413 2.79 6.2 6.2 6.2h43.4c3.41 0 6.2-2.787 6.2-6.2v-43.4c0-3.41-2.79-6.2-6.2-6.2zM30.95 48.121c9.483 0 17.168-7.691 17.168-17.171 0-1.048-0.133-2.058-0.319-3.050h4.901v22.37c0 1.184-0.961 2.139-2.148 2.139h-39.103c-1.187 0-2.148-0.955-2.148-2.139v-22.37h4.802c-0.189 0.992-0.322 2.003-0.322 3.050 0 9.483 7.691 17.171 17.171 17.171zM20.221 30.95c0-5.927 4.805-10.729 10.732-10.729 5.924 0 10.732 4.802 10.732 10.729s-4.808 10.732-10.732 10.732c-5.93 0-10.732-4.805-10.732-10.732zM50.552 18.6h-5.006c-1.184 0-2.145-0.967-2.145-2.145v-5.013c0-1.184 0.961-2.142 2.142-2.142h5.007c1.19 0 2.151 0.958 2.151 2.142v5.010c0 1.181-0.961 2.148-2.148 2.148z"></path>
</svg>
