<!-- Generated by IcoMoon.io -->
<svg version="1.1" xmlns="http://www.w3.org/2000/svg" width="62" height="62" viewBox="0 0 62 62">
<title>pinterest</title>
<rect fill="#fff" x="0" y="0" width="62" height="62"></rect>
<path d="M26.713 41.004c-1.631 8.537-3.618 16.721-9.511 20.996-1.817-12.902 2.669-22.59 4.755-32.876-3.556-5.983 0.428-18.017 7.921-15.051 9.223 3.646-7.986 22.233 3.565 24.558 12.062 2.421 16.985-20.925 9.505-28.517-10.803-10.968-31.453-0.257-28.911 15.444 0.617 3.838 4.582 5 1.584 10.298-6.916-1.531-8.981-6.987-8.714-14.26 0.428-11.904 10.692-20.234 20.99-21.39 13.023-1.46 25.246 4.783 26.936 17.031 1.9 13.829-5.878 28.808-19.806 27.73-3.776-0.295-5.357-2.167-8.314-3.965z"></path>
</svg>
