<!-- Generated by IcoMoon.io -->
<svg version="1.1" xmlns="http://www.w3.org/2000/svg" width="62" height="62" viewBox="0 0 62 62">
<title>twitter</title>
<rect fill="#fff" x="0" y="0" width="62" height="62"></rect>
<path d="M53.68 19.363c0.025 0.502 0.034 1.011 0.034 1.513 0 15.469-11.771 33.3-33.294 33.3-6.612 0-12.76-1.938-17.94-5.261 0.918 0.108 1.848 0.164 2.79 0.164 5.487 0 10.531-1.872 14.533-5.007-5.118-0.096-9.443-3.475-10.931-8.125 0.713 0.133 1.448 0.205 2.201 0.205 1.070 0 2.105-0.139 3.084-0.406-5.354-1.079-9.387-5.806-9.387-11.479 0-0.050 0-0.096 0-0.146 1.578 0.877 3.385 1.404 5.301 1.466-3.14-2.102-5.208-5.679-5.208-9.743 0-2.142 0.577-4.154 1.587-5.884 5.769 7.084 14.396 11.74 24.121 12.23-0.198-0.859-0.301-1.748-0.301-2.669 0-6.46 5.236-11.696 11.699-11.696 3.367 0 6.408 1.417 8.544 3.692 2.663-0.527 5.168-1.5 7.431-2.84-0.874 2.731-2.731 5.025-5.146 6.473 2.368-0.285 4.619-0.908 6.721-1.841-1.569 2.35-3.553 4.408-5.84 6.054z"></path>
</svg>
